<?xml version="1.0" encoding="UTF-8"?>
<svg xmlns="http://www.w3.org/2000/svg" width="1280" height="768" viewBox="0 0 1280 768" shape-rendering="crispEdges">
<defs>
  <linearGradient id="night" x1="0" x2="0" y1="0" y2="1">
    <stop offset="0" stop-color="#06101f"/>
    <stop offset="0.55" stop-color="#0b1726"/>
    <stop offset="1" stop-color="#111a28"/>
  </linearGradient>
  <linearGradient id="court" x1="0" x2="0" y1="0" y2="1">
    <stop offset="0" stop-color="#2b1712"/>
    <stop offset="1" stop-color="#5d341f"/>
  </linearGradient>
  <radialGradient id="lampGlow" cx="50%" cy="50%" r="50%">
    <stop offset="0" stop-color="#ffd36c" stop-opacity="0.45"/>
    <stop offset="1" stop-color="#ffd36c" stop-opacity="0"/>
  </radialGradient>
  <pattern id="grid" width="64" height="64" patternUnits="userSpaceOnUse">
    <path d="M64 0H0V64" fill="none" stroke="#17283a" stroke-width="2" opacity="0.35"/>
  </pattern>
  
</defs>

    <rect x="0" y="0" width="1280" height="768" fill="#06101f" />
    <rect x="0" y="0" width="1280" height="768" fill="url(#grid)" opacity="0.8"/>
    <g><rect x="0" y="320" width="1280" height="150" fill="#151d2a" stroke="#263a50" stroke-width="5"/><rect x="48" y="388" width="58" height="14" fill="#cfd5df" opacity="0.45"/><rect x="176" y="388" width="58" height="14" fill="#cfd5df" opacity="0.45"/><rect x="304" y="388" width="58" height="14" fill="#cfd5df" opacity="0.45"/><rect x="432" y="388" width="58" height="14" fill="#cfd5df" opacity="0.45"/><rect x="560" y="388" width="58" height="14" fill="#cfd5df" opacity="0.45"/><rect x="688" y="388" width="58" height="14" fill="#cfd5df" opacity="0.45"/><rect x="816" y="388" width="58" height="14" fill="#cfd5df" opacity="0.45"/><rect x="944" y="388" width="58" height="14" fill="#cfd5df" opacity="0.45"/><rect x="1072" y="388" width="58" height="14" fill="#cfd5df" opacity="0.45"/><rect x="1200" y="388" width="58" height="14" fill="#cfd5df" opacity="0.45"/></g>
    <g><rect x="560" y="0" width="160" height="768" fill="#151d2a" stroke="#263a50" stroke-width="5"/><rect x="633" y="48" width="14" height="58" fill="#cfd5df" opacity="0.45"/><rect x="633" y="176" width="14" height="58" fill="#cfd5df" opacity="0.45"/><rect x="633" y="304" width="14" height="58" fill="#cfd5df" opacity="0.45"/><rect x="633" y="432" width="14" height="58" fill="#cfd5df" opacity="0.45"/><rect x="633" y="560" width="14" height="58" fill="#cfd5df" opacity="0.45"/><rect x="633" y="688" width="14" height="58" fill="#cfd5df" opacity="0.45"/></g>
    
    <g>
      <rect x="90" y="90" width="340" height="200" fill="#182438" stroke="#20c7b3" stroke-width="5"/>
      <rect x="108" y="108" width="304" height="42" fill="#0c1421" stroke="#20c7b3" stroke-width="3"/>
      <text x="260" y="139" fill="#f8f5e8" font-family="Georgia, serif" font-size="28" font-weight="700" letter-spacing="1" text-anchor="middle" font-family="Arial Black, Arial, sans-serif">BARRIO RESIDENCIAL</text>
      <rect x="124" y="160" width="28" height="34" fill="#1f3a57" stroke="#09111e" stroke-width="3"/><rect x="182" y="160" width="28" height="34" fill="#1f3a57" stroke="#09111e" stroke-width="3"/><rect x="240" y="160" width="28" height="34" fill="#f6bd60" stroke="#09111e" stroke-width="3"/><rect x="298" y="160" width="28" height="34" fill="#f6bd60" stroke="#09111e" stroke-width="3"/><rect x="356" y="160" width="28" height="34" fill="#f6bd60" stroke="#09111e" stroke-width="3"/><rect x="124" y="214" width="28" height="34" fill="#1f3a57" stroke="#09111e" stroke-width="3"/><rect x="182" y="214" width="28" height="34" fill="#1f3a57" stroke="#09111e" stroke-width="3"/><rect x="240" y="214" width="28" height="34" fill="#1f3a57" stroke="#09111e" stroke-width="3"/><rect x="298" y="214" width="28" height="34" fill="#f6bd60" stroke="#09111e" stroke-width="3"/><rect x="356" y="214" width="28" height="34" fill="#f6bd60" stroke="#09111e" stroke-width="3"/>
      <rect x="224" y="218" width="72" height="72" fill="#221712" stroke="#20c7b3" stroke-width="4"/>
    </g>
    
    <g>
      <rect x="820" y="88" width="360" height="210" fill="#182438" stroke="#e15c86" stroke-width="5"/>
      <rect x="838" y="106" width="324" height="42" fill="#0c1421" stroke="#e15c86" stroke-width="3"/>
      <text x="1000" y="137" fill="#f8f5e8" font-family="Georgia, serif" font-size="28" font-weight="700" letter-spacing="1" text-anchor="middle" font-family="Arial Black, Arial, sans-serif">DISTRITO COMERCIAL</text>
      <rect x="854" y="158" width="28" height="34" fill="#1f3a57" stroke="#09111e" stroke-width="3"/><rect x="912" y="158" width="28" height="34" fill="#1f3a57" stroke="#09111e" stroke-width="3"/><rect x="970" y="158" width="28" height="34" fill="#f6bd60" stroke="#09111e" stroke-width="3"/><rect x="1028" y="158" width="28" height="34" fill="#f6bd60" stroke="#09111e" stroke-width="3"/><rect x="1086" y="158" width="28" height="34" fill="#f6bd60" stroke="#09111e" stroke-width="3"/><rect x="1144" y="158" width="28" height="34" fill="#f6bd60" stroke="#09111e" stroke-width="3"/><rect x="854" y="212" width="28" height="34" fill="#1f3a57" stroke="#09111e" stroke-width="3"/><rect x="912" y="212" width="28" height="34" fill="#1f3a57" stroke="#09111e" stroke-width="3"/><rect x="970" y="212" width="28" height="34" fill="#1f3a57" stroke="#09111e" stroke-width="3"/><rect x="1028" y="212" width="28" height="34" fill="#f6bd60" stroke="#09111e" stroke-width="3"/><rect x="1086" y="212" width="28" height="34" fill="#f6bd60" stroke="#09111e" stroke-width="3"/><rect x="1144" y="212" width="28" height="34" fill="#f6bd60" stroke="#09111e" stroke-width="3"/>
      <rect x="964" y="226" width="72" height="72" fill="#221712" stroke="#e15c86" stroke-width="4"/>
    </g>
    
    <g>
      <rect x="110" y="510" width="360" height="180" fill="#182438" stroke="#f4b94a" stroke-width="5"/>
      <rect x="128" y="528" width="324" height="42" fill="#0c1421" stroke="#f4b94a" stroke-width="3"/>
      <text x="290" y="559" fill="#f8f5e8" font-family="Georgia, serif" font-size="28" font-weight="700" letter-spacing="1" text-anchor="middle" font-family="Arial Black, Arial, sans-serif">ZONA INDUSTRIAL</text>
      <rect x="144" y="580" width="28" height="34" fill="#1f3a57" stroke="#09111e" stroke-width="3"/><rect x="202" y="580" width="28" height="34" fill="#1f3a57" stroke="#09111e" stroke-width="3"/><rect x="260" y="580" width="28" height="34" fill="#f6bd60" stroke="#09111e" stroke-width="3"/><rect x="318" y="580" width="28" height="34" fill="#f6bd60" stroke="#09111e" stroke-width="3"/><rect x="376" y="580" width="28" height="34" fill="#f6bd60" stroke="#09111e" stroke-width="3"/><rect x="434" y="580" width="28" height="34" fill="#f6bd60" stroke="#09111e" stroke-width="3"/><rect x="144" y="634" width="28" height="34" fill="#1f3a57" stroke="#09111e" stroke-width="3"/><rect x="202" y="634" width="28" height="34" fill="#1f3a57" stroke="#09111e" stroke-width="3"/><rect x="260" y="634" width="28" height="34" fill="#1f3a57" stroke="#09111e" stroke-width="3"/><rect x="318" y="634" width="28" height="34" fill="#f6bd60" stroke="#09111e" stroke-width="3"/><rect x="376" y="634" width="28" height="34" fill="#f6bd60" stroke="#09111e" stroke-width="3"/><rect x="434" y="634" width="28" height="34" fill="#f6bd60" stroke="#09111e" stroke-width="3"/>
      <rect x="254" y="618" width="72" height="72" fill="#221712" stroke="#f4b94a" stroke-width="4"/>
    </g>
    
    <g>
      <rect x="790" y="510" width="370" height="180" fill="#182438" stroke="#7b4cc2" stroke-width="5"/>
      <rect x="808" y="528" width="334" height="42" fill="#0c1421" stroke="#7b4cc2" stroke-width="3"/>
      <text x="975" y="559" fill="#f8f5e8" font-family="Georgia, serif" font-size="28" font-weight="700" letter-spacing="1" text-anchor="middle" font-family="Arial Black, Arial, sans-serif">CALLEJON DEL CONTRATO</text>
      <rect x="824" y="580" width="28" height="34" fill="#f6bd60" stroke="#09111e" stroke-width="3"/><rect x="882" y="580" width="28" height="34" fill="#f6bd60" stroke="#09111e" stroke-width="3"/><rect x="940" y="580" width="28" height="34" fill="#f6bd60" stroke="#09111e" stroke-width="3"/><rect x="998" y="580" width="28" height="34" fill="#1f3a57" stroke="#09111e" stroke-width="3"/><rect x="1056" y="580" width="28" height="34" fill="#1f3a57" stroke="#09111e" stroke-width="3"/><rect x="1114" y="580" width="28" height="34" fill="#1f3a57" stroke="#09111e" stroke-width="3"/><rect x="824" y="634" width="28" height="34" fill="#f6bd60" stroke="#09111e" stroke-width="3"/><rect x="882" y="634" width="28" height="34" fill="#f6bd60" stroke="#09111e" stroke-width="3"/><rect x="940" y="634" width="28" height="34" fill="#f6bd60" stroke="#09111e" stroke-width="3"/><rect x="998" y="634" width="28" height="34" fill="#f6bd60" stroke="#09111e" stroke-width="3"/><rect x="1056" y="634" width="28" height="34" fill="#1f3a57" stroke="#09111e" stroke-width="3"/><rect x="1114" y="634" width="28" height="34" fill="#1f3a57" stroke="#09111e" stroke-width="3"/>
      <rect x="939" y="618" width="72" height="72" fill="#221712" stroke="#7b4cc2" stroke-width="4"/>
    </g>
    
    <g>
      <circle cx="560" cy="360" r="86" fill="url(#lampGlow)"/>
      <line x1="560" y1="372" x2="560" y2="436" stroke="#14100d" stroke-width="8" />
      <circle cx="560" cy="360" r="16" fill="#ffd36c" stroke="#3c260e" stroke-width="4"/>
    </g>
    <g>
      <circle cx="720" cy="360" r="86" fill="url(#lampGlow)"/>
      <line x1="720" y1="372" x2="720" y2="436" stroke="#14100d" stroke-width="8" />
      <circle cx="720" cy="360" r="16" fill="#ffd36c" stroke="#3c260e" stroke-width="4"/>
    </g>
    <g>
      <circle cx="640" cy="180" r="86" fill="url(#lampGlow)"/>
      <line x1="640" y1="192" x2="640" y2="256" stroke="#14100d" stroke-width="8" />
      <circle cx="640" cy="180" r="16" fill="#ffd36c" stroke="#3c260e" stroke-width="4"/>
    </g>
    <g>
      <circle cx="640" cy="600" r="86" fill="url(#lampGlow)"/>
      <line x1="640" y1="612" x2="640" y2="676" stroke="#14100d" stroke-width="8" />
      <circle cx="640" cy="600" r="16" fill="#ffd36c" stroke="#3c260e" stroke-width="4"/>
    </g>
    <text x="640" y="62" fill="#f8f5e8" font-family="Georgia, serif" font-size="48" font-weight="700" letter-spacing="1" text-anchor="middle" font-family="Arial Black, Arial, sans-serif">DISTRITOS Y CALLES</text>
    <text x="640" y="112" fill="#33d8ff" font-family="Georgia, serif" font-size="28" font-weight="700" letter-spacing="1" text-anchor="middle" font-family="Arial, sans-serif">historias que te rodean</text>
  
</svg>